<?xml version="1.0" encoding="UTF-8"?>
<svg xmlns="http://www.w3.org/2000/svg" version="1.1" viewBox="0 0 429 429">
  <defs>
    <style>
      .cls-1 {
        fill: #064273;
      }

      .cls-2 {
        fill: #def3f6;
        stroke: #000;
        stroke-miterlimit: 10;
      }

      .cls-3 {
        fill: #7fcdff;
      }

      .cls-4 {
        fill: #76b6c4;
      }
    </style>
  </defs>
  <!-- Generator: Adobe Illustrator 28.6.0, SVG Export Plug-In . SVG Version: 1.2.0 Build 709)  -->
  <g>
    <g id="Layer_1">
      <g id="b">
        <ellipse class="cls-2" cx="215.5" cy="214" rx="211.5" ry="212"/>
        <g id="c">
          <path class="cls-3" d="M387.4,303.7c-53.7-8.4-189.4-77.7-88.7-124.3-8.1-60.1-140.7,1.9-179.3,23-28.8,28.4-69.4,44-108.4,46.2v27.3c16.5,28.5,22.2,61.9,51.5,83.9,6.9,17.5,312.2,30,310.1-9.1,9-12.7,47.5-46.5,14.7-47h0Z"/>
          <path class="cls-4" d="M333,370.7c-49-5.7-213,.4-195.4-83.3-33.4-2.8-65.3.6-94.2,13.8-19.2-4.9-14.3,1.2-14.7,17,26.3,21.3,41.4,53.2,73.2,70.4,16.3,18.2,46.9,9.6,58.2,32.5,26.1,2.1,108.9.7,128.9-13.8,25.1-1.9,36.6-27.2,61.4-30.7,2.4-17.3-6.2-4.6-17.3-5.9h-.1Z"/>
          <path class="cls-1" d="M100.9,317.8h-.2c-3.4-1.2-7.1.7-8.2,4.2-1.1,3.4.8,7.1,4.2,8.2h.2c3.4,1.2,7.1-.7,8.2-4.2,1.1-3.4-.8-7.1-4.2-8.2Z"/>
          <path class="cls-1" d="M210.9,254.4h-.2c-3.4-1.3-7.1.4-8.4,3.8-1.2,3.4.5,7.1,3.9,8.4h.2c3.4,1.3,7.1-.4,8.4-3.8s-.5-7.1-3.9-8.4Z"/>
          <path class="cls-1" d="M355.1,360.8c-10,.2-19.6.4-28.8.4-77.6,0-126.1-8.9-154.4-20.9-14.1-6-23.2-12.7-28.5-19.1s-7.2-12.5-7.2-18.4,2.6-13.2,6.7-18.7c1.5-2,1.7-4.7.6-6.9s-3.5-3.6-6-3.5c-24.6.8-45.6,7.6-68.1,14.1-14.9,4.3-30.5,8.4-48.6,10.9,2.6,3.7,4.6,7.7,6.2,12.2,17.2-2.6,32.2-6.6,46-10.6,18.8-5.4,35.5-10.6,53.2-12.7-1.9,4.7-3,9.8-3,15.2,0,8.8,3.2,18.2,10.3,26.7,10.7,12.7,29.6,23.6,60.4,31.6,30.8,8,73.5,13,132.5,13s19-.1,29.1-.4c3.6,0,6.4-3.1,6.3-6.7,0-3.6-3.1-6.4-6.7-6.3h0Z"/>
          <path class="cls-1" d="M407.8,298.5c-41.7-4.8-73.3-14.5-95.8-26.1-16.3-8.5-27.9-17.9-35.2-27.3-7.4-9.4-10.5-18.5-10.5-26.6s3.8-17.2,11.6-24c7.8-6.8,19.7-11.9,35.5-13.7,2.7-.3,4.9-2.2,5.6-4.8s-.3-5.3-2.4-6.9c-18.1-13.3-38-19.6-59.5-19.5-41.9.1-89.6,22.5-151.3,58.3-40.6,23.6-72.3,36.9-100.4,42.8,1.7,4,2.6,8.4,3,12.7,29.9-6.3,62.9-20.3,103.9-44.2,61.1-35.7,107.7-56.7,144.7-56.6,13.7,0,26.2,2.8,38.1,8.6-10.3,3-18.9,7.6-25.7,13.5-10.3,8.8-16.1,20.9-16.1,33.8s4.5,23.4,13.3,34.6c13.2,16.8,35.9,32.1,69.4,43.3,18.6,6.3,40.6,11.2,66.2,14.5,1-4.5,2.9-8.7,5.6-12.4h0Z"/>
          <path class="cls-1" d="M222.5,282.3c33.6,25,88.5,44.1,168.2,48.2,3.6.2,6.6-2.6,6.8-6.2s-2.6-6.6-6.2-6.8c-78-4-130.5-22.8-161.1-45.6-2.9-2.1-6.9-1.5-9.1,1.3s-1.5,7,1.3,9.1h.1Z"/>
          <path class="cls-1" d="M294.6,156.8c-12.3-3.6-24.1-5.3-35.1-5.3-37.1,0-65.7,19.2-74.5,46.4-1.8,5.6-2.7,11.4-2.7,17.4,0,9.2,2.2,18.7,6.5,27.9,1.5,3.2,5.4,4.6,8.6,3.1s4.6-5.4,3.1-8.6c-3.6-7.7-5.3-15.2-5.3-22.4s.7-9.1,2.1-13.4c6.6-20.7,29.4-37.4,62.1-37.4s20.3,1.5,31.5,4.8c3.4,1,7.1-.9,8.1-4.4,1-3.4-.9-7.1-4.4-8.1h0Z"/>
          <path class="cls-1" d="M276.8,384.4c-46.7-1.1-81-5.2-106.5-12.5-25.6-7.3-42.2-17.4-54.8-30.8-2.5-2.6-6.6-2.8-9.2-.3s-2.8,6.6-.3,9.2c14.3,15.4,33.6,26.8,60.8,34.5,27.2,7.7,62.4,11.9,109.8,13,3.6,0,6.6-2.8,6.6-6.4s-2.8-6.6-6.4-6.6h0Z"/>
          <path d="M422.5,214.5h-6.5c0,55.7-22.5,106-59,142.5s-86.8,59-142.5,59-106-22.5-142.5-59S13,270.2,13,214.5s22.5-106,59-142.5S158.8,13,214.5,13s106,22.5,142.5,59,59,86.8,59,142.5h13C429,96,333,0,214.5,0S0,96,0,214.5s96,214.5,214.5,214.5,214.5-96,214.5-214.5h-6.5Z"/>
        </g>
      </g>
    </g>
  </g>
</svg>